<svg width="1407" height="1024" viewBox="0 0 1407 1024" fill="none" xmlns="http://www.w3.org/2000/svg">
<circle r="18.5" transform="matrix(-1 0 0 1 655.5 206.5)" fill="#FAFEFF" stroke="#E9E9E9" stroke-width="4"/>
<circle r="132.5" transform="matrix(-1 0 0 1 263.5 16.5)" fill="#FAFEFF" stroke="#E9E9E9" stroke-width="4"/>
<circle r="99" transform="matrix(-1 0 0 1 969 710)" fill="#FAFEFF" stroke="#E9E9E9" stroke-width="4"/>
<circle r="18.5" transform="matrix(-1 0 0 1 469.5 675.5)" fill="#FAFEFF" stroke="#E9E9E9" stroke-width="4"/>
<path d="M67.2744 605.687L121.293 404.087L268.875 551.668L67.2744 605.687Z" stroke="#E9E9E9" stroke-width="4"/>
<path d="M252.729 1014.55L572.887 819.079L582.087 1194.08L252.729 1014.55Z" stroke="#E9E9E9" stroke-width="4"/>
<path d="M1094.11 152.207L1162.96 133.758L1144.51 202.611L1094.11 152.207Z" stroke="#E9E9E9" stroke-width="4"/>
<path d="M1298.11 890.207L1366.96 871.758L1348.51 940.611L1298.11 890.207Z" stroke="#E9E9E9" stroke-width="4"/>
<circle r="89" transform="matrix(-1 0 0 1 1348 418)" stroke="#E9E9E9" stroke-width="4"/>
</svg>
