<svg width="529" height="420" viewBox="0 0 529 420" fill="none" xmlns="http://www.w3.org/2000/svg">
<path d="M510.702 296.728C520.808 286.622 520.808 270.238 510.702 260.132C500.597 250.027 484.212 250.027 474.107 260.132C464.001 270.238 464.001 286.622 474.107 296.728C484.212 306.834 500.597 306.834 510.702 296.728Z" fill="#C0C0C0"/>
<path d="M94.5141 125.726C109.93 110.31 109.93 85.3164 94.5141 69.9008C79.0985 54.4852 54.1049 54.4852 38.6893 69.9008C23.2737 85.3164 23.2737 110.31 38.6893 125.726C54.1049 141.141 79.0985 141.141 94.5141 125.726Z" fill="#C0C0C0"/>
<path d="M203.147 59.8625C214.513 59.8625 223.726 50.6488 223.726 39.2831C223.726 27.9173 214.513 18.7036 203.147 18.7036C191.781 18.7036 182.567 27.9173 182.567 39.2831C182.567 50.6488 191.781 59.8625 203.147 59.8625Z" fill="#C0C0C0"/>
<path d="M173.685 49.4553C172.411 49.4553 171.128 49.3549 169.864 49.1573L169.987 48.3825C171.207 48.5739 172.452 48.6711 173.685 48.6711H173.829L173.835 49.4553H173.685ZM177.8 49.1102L177.668 48.3386C178.929 48.1253 180.184 47.8054 181.404 47.3914L181.658 48.1348C180.397 48.5582 179.102 48.8875 177.8 49.1102ZM165.997 48.2288C164.739 47.8179 163.503 47.3004 162.327 46.6919L162.688 45.9956C163.826 46.5821 165.024 47.084 166.242 47.4823L165.997 48.2288ZM185.309 46.5507L184.942 45.8576C186.078 45.2553 187.169 44.5559 188.188 43.7842L188.662 44.4084C187.608 45.2083 186.479 45.9297 185.309 46.5507ZM158.949 44.5904C157.882 43.8031 156.872 42.9217 155.95 41.9744L156.512 41.4255C157.406 42.3414 158.384 43.1946 159.416 43.9568L158.949 44.5904ZM191.626 41.7548L191.059 41.2153C191.94 40.2869 192.755 39.2769 193.477 38.2167L194.126 38.659C193.376 39.7537 192.536 40.795 191.626 41.7548ZM153.41 38.913C152.65 37.8309 151.973 36.6766 151.399 35.4816L152.105 35.1397C152.663 36.2971 153.319 37.4137 154.053 38.4645L153.41 38.913ZM196.096 35.2024L195.387 34.8699C195.933 33.7062 196.388 32.4924 196.739 31.2597L197.492 31.4761C197.125 32.7496 196.657 34.0011 196.096 35.2024ZM149.959 31.7709C149.58 30.4975 149.297 29.1895 149.128 27.8784L149.906 27.778C150.072 29.0452 150.342 30.3155 150.712 31.5451L149.959 31.7709ZM198.273 27.5741L197.495 27.4832C197.605 26.5579 197.658 25.62 197.658 24.6916C197.658 24.3403 197.649 23.9827 197.633 23.6314L198.417 23.5969C198.433 23.9607 198.442 24.3277 198.442 24.6916C198.442 25.6514 198.386 26.6206 198.273 27.5741ZM149.718 23.9294L148.934 23.9043C148.978 22.5806 149.128 21.2507 149.382 19.949L150.151 20.0995C149.906 21.3605 149.759 22.6465 149.718 23.9294ZM197.15 19.8078C196.89 18.5563 196.523 17.3142 196.061 16.1097L196.792 15.8274C197.269 17.0696 197.649 18.3524 197.918 19.6447L197.15 19.8078ZM151.195 16.3889L150.461 16.116C150.919 14.8739 151.484 13.66 152.136 12.5058L152.82 12.8916C152.186 14.0113 151.64 15.1876 151.195 16.3889ZM195.989 15.9278C195.519 14.7296 194.951 13.5659 194.299 12.465L194.973 12.0666C195.644 13.2021 196.231 14.4066 196.717 15.6424L195.989 15.9278ZM154.975 9.70161L154.363 9.21229C155.191 8.17721 156.11 7.20171 157.092 6.31718L157.619 6.90059C156.665 7.75689 155.775 8.70102 154.975 9.70161ZM192.078 9.31894C191.256 8.33717 190.347 7.41186 189.377 6.57125L189.889 5.97842C190.892 6.84413 191.83 7.8008 192.677 8.81394L192.078 9.31894ZM160.674 4.55752L160.251 3.89884C161.361 3.18369 162.54 2.55008 163.757 2.01999L164.071 2.73828C162.892 3.25269 161.747 3.86433 160.674 4.55752ZM186.269 4.29719C185.177 3.62595 184.023 3.03626 182.837 2.54381L183.139 1.81925C184.362 2.32425 185.554 2.93589 186.683 3.62908L186.269 4.29719ZM167.713 1.47736L167.518 0.718291C168.804 0.385808 170.122 0.15684 171.439 0.0376476L171.511 0.818666C170.234 0.934721 168.958 1.15742 167.713 1.47736ZM179.171 1.36131C177.922 1.06646 176.639 0.87199 175.363 0.781028L175.419 0C176.74 0.0940989 178.063 0.294848 179.353 0.602237L179.171 1.36131Z" fill="#9192FF"/>
<path d="M420.725 323.503L420.713 322.719C422.011 322.697 423.323 322.643 424.612 322.562L424.662 323.343C423.36 323.427 422.037 323.481 420.725 323.503ZM416.786 323.481C415.481 323.443 414.157 323.374 412.856 323.277L412.915 322.496C414.204 322.593 415.516 322.662 416.811 322.7L416.786 323.481ZM428.583 323.001L428.495 322.223C429.784 322.079 431.083 321.903 432.359 321.702L432.482 322.477C431.196 322.678 429.881 322.857 428.583 323.001ZM408.938 322.888C407.643 322.728 406.335 322.537 405.042 322.317L405.174 321.545C406.454 321.765 407.752 321.956 409.032 322.113L408.938 322.888ZM436.358 321.765L436.198 320.997C437.469 320.733 438.749 320.435 439.997 320.112L440.191 320.871C438.93 321.197 437.641 321.498 436.358 321.765ZM401.178 321.558C399.901 321.276 398.615 320.962 397.354 320.62L397.558 319.864C398.807 320.203 400.083 320.513 401.347 320.793L401.178 321.558ZM443.98 319.798L443.748 319.049C444.987 318.666 446.233 318.249 447.446 317.81L447.713 318.547C446.487 318.992 445.232 319.413 443.98 319.798ZM393.578 319.504C392.336 319.102 391.081 318.666 389.852 318.205L390.128 317.471C391.345 317.929 392.587 318.362 393.819 318.757L393.578 319.504ZM451.377 317.123L451.076 316.398C452.264 315.903 453.462 315.373 454.632 314.817L454.968 315.526C453.786 316.088 452.575 316.624 451.377 317.123ZM386.188 316.731C384.984 316.213 383.779 315.658 382.603 315.084L382.948 314.378C384.112 314.946 385.307 315.495 386.499 316.009L386.188 316.731ZM458.478 313.767L458.111 313.073C459.253 312.468 460.394 311.825 461.505 311.163L461.906 311.838C460.783 312.506 459.632 313.152 458.478 313.767ZM379.099 313.271C377.954 312.644 376.806 311.979 375.687 311.295L376.094 310.627C377.205 311.304 378.34 311.963 379.476 312.584L379.099 313.271ZM465.241 309.752L464.808 309.096C465.89 308.381 466.969 307.634 468.01 306.875L468.471 307.509C467.42 308.274 466.335 309.03 465.241 309.752ZM372.374 309.162C371.295 308.431 370.216 307.66 369.166 306.875L369.636 306.248C370.677 307.026 371.747 307.788 372.817 308.513L372.374 309.162ZM471.598 305.116L471.109 304.504C472.116 303.695 473.12 302.848 474.092 301.992L474.61 302.578C473.628 303.444 472.615 304.297 471.598 305.116ZM366.067 304.441C365.057 303.61 364.053 302.741 363.087 301.866L363.614 301.286C364.573 302.155 365.565 303.014 366.565 303.836L366.067 304.441ZM477.498 299.906L476.953 299.344C477.881 298.444 478.803 297.506 479.688 296.562L480.259 297.099C479.365 298.052 478.436 298.996 477.498 299.906ZM360.232 299.153C359.304 298.228 358.388 297.274 357.507 296.311L358.084 295.781C358.956 296.735 359.862 297.682 360.784 298.598L360.232 299.153ZM482.887 294.163L482.291 293.655C483.135 292.666 483.963 291.65 484.757 290.628L485.375 291.108C484.575 292.14 483.737 293.168 482.887 294.163ZM354.916 293.344C354.078 292.337 353.257 291.302 352.469 290.261L353.093 289.787C353.871 290.819 354.687 291.845 355.518 292.842L354.916 293.344ZM487.718 287.94L487.078 287.488C487.824 286.428 488.555 285.333 489.248 284.241L489.91 284.662C489.208 285.766 488.47 286.867 487.718 287.94ZM350.173 287.068C349.436 285.992 348.715 284.881 348.028 283.771L348.696 283.36C349.377 284.461 350.092 285.559 350.823 286.625L350.173 287.068ZM491.946 281.287L491.265 280.898C491.908 279.775 492.532 278.618 493.122 277.46L493.821 277.818C493.222 278.988 492.592 280.154 491.946 281.287ZM346.039 280.377C345.406 279.235 344.791 278.062 344.214 276.895L344.916 276.547C345.49 277.705 346.096 278.865 346.723 279.998L346.039 280.377ZM495.528 274.264L494.813 273.941C495.349 272.755 495.86 271.544 496.337 270.343L497.065 270.632C496.585 271.846 496.067 273.066 495.528 274.264ZM342.554 273.335C342.031 272.14 341.532 270.917 341.068 269.7L341.802 269.421C342.263 270.625 342.758 271.836 343.276 273.022L342.554 273.335ZM498.432 266.927L497.689 266.673C498.106 265.45 498.501 264.198 498.862 262.953L499.615 263.173C499.251 264.427 498.853 265.691 498.432 266.927ZM339.747 265.986C339.339 264.741 338.953 263.474 338.608 262.216L339.364 262.006C339.709 263.251 340.089 264.506 340.494 265.738L339.747 265.986ZM500.622 259.365L499.859 259.183C500.161 257.928 500.434 256.642 500.675 255.369L501.447 255.513C501.202 256.799 500.926 258.095 500.622 259.365ZM337.649 258.399C337.36 257.128 337.1 255.83 336.871 254.538L337.642 254.4C337.868 255.679 338.129 256.965 338.414 258.223L337.649 258.399ZM502.087 251.63L501.312 251.52C501.491 250.244 501.644 248.939 501.767 247.646L502.548 247.719C502.422 249.023 502.268 250.338 502.087 251.63ZM336.275 250.648C336.109 249.356 335.971 248.038 335.864 246.731L336.645 246.668C336.752 247.963 336.886 249.268 337.053 250.548L336.275 250.648ZM502.817 243.788L502.033 243.751C502.093 242.462 502.124 241.15 502.124 239.852H502.908C502.908 241.166 502.88 242.49 502.817 243.788ZM335.638 242.8C335.604 241.828 335.588 240.837 335.588 239.855C335.588 239.523 335.591 239.193 335.594 238.864L336.378 238.873C336.375 239.199 336.372 239.529 336.372 239.855C336.372 240.827 336.388 241.809 336.422 242.775L335.638 242.8ZM502.102 237.926C502.074 236.631 502.011 235.319 501.923 234.03L502.704 233.977C502.795 235.279 502.855 236.602 502.886 237.91L502.102 237.926ZM336.51 234.971L335.726 234.927C335.801 233.619 335.908 232.299 336.046 231.003L336.827 231.085C336.692 232.368 336.585 233.676 336.51 234.971ZM501.563 230.147C501.412 228.864 501.23 227.566 501.02 226.286L501.795 226.157C502.008 227.45 502.193 228.761 502.344 230.056L501.563 230.147ZM337.326 227.218L336.551 227.098C336.748 225.806 336.981 224.501 337.238 223.221L338.006 223.378C337.752 224.642 337.523 225.935 337.326 227.218ZM500.296 222.45C500.026 221.186 499.721 219.909 499.389 218.655L500.148 218.454C500.481 219.721 500.788 221.01 501.061 222.284L500.296 222.45ZM338.869 219.57L338.11 219.379C338.43 218.112 338.781 216.835 339.161 215.584L339.91 215.81C339.537 217.052 339.186 218.316 338.869 219.57ZM498.307 214.909C497.918 213.674 497.494 212.431 497.046 211.218L497.783 210.948C498.235 212.174 498.661 213.426 499.057 214.674L498.307 214.909ZM341.13 212.096L340.39 211.832C340.829 210.597 341.303 209.358 341.798 208.147L342.523 208.445C342.037 209.646 341.566 210.873 341.13 212.096ZM495.616 207.601C495.114 206.415 494.574 205.22 494.016 204.053L494.722 203.715C495.286 204.894 495.832 206.099 496.337 207.297L495.616 207.601ZM344.094 204.866L343.382 204.533C343.934 203.351 344.524 202.162 345.133 200.998L345.826 201.362C345.227 202.517 344.643 203.693 344.094 204.866ZM492.247 200.581C491.635 199.446 490.986 198.307 490.318 197.197L490.989 196.792C491.664 197.915 492.319 199.063 492.937 200.208L492.247 200.581ZM347.727 197.95L347.049 197.551C347.711 196.425 348.41 195.296 349.126 194.198L349.781 194.628C349.075 195.716 348.382 196.833 347.727 197.95ZM488.232 193.907C487.514 192.831 486.761 191.758 485.992 190.717L486.623 190.252C487.398 191.303 488.16 192.388 488.884 193.474L488.232 193.907ZM351.992 191.41L351.356 190.952C352.121 189.892 352.921 188.838 353.736 187.812L354.351 188.301C353.545 189.314 352.752 190.362 351.992 191.41ZM483.605 187.633C482.79 186.63 481.94 185.629 481.077 184.666L481.664 184.142C482.536 185.118 483.392 186.125 484.217 187.138L483.605 187.633ZM356.851 185.303L356.261 184.785C357.124 183.8 358.018 182.825 358.924 181.884L359.489 182.426C358.592 183.361 357.704 184.327 356.851 185.303ZM478.411 181.818C477.502 180.893 476.561 179.977 475.613 179.098L476.147 178.524C477.103 179.412 478.054 180.334 478.97 181.269L478.411 181.818ZM362.259 179.679L361.719 179.111C362.67 178.211 363.651 177.323 364.639 176.47L365.151 177.063C364.172 177.91 363.2 178.788 362.259 179.679ZM472.693 176.511C471.705 175.676 470.683 174.855 469.654 174.064L470.131 173.443C471.172 174.24 472.204 175.074 473.198 175.915L472.693 176.511ZM368.162 174.588L367.679 173.97C368.708 173.164 369.768 172.374 370.831 171.614L371.286 172.254C370.232 173.004 369.181 173.791 368.162 174.588ZM466.501 171.759C465.435 171.019 464.34 170.294 463.246 169.607L463.663 168.942C464.77 169.635 465.874 170.366 466.95 171.116L466.501 171.759ZM374.517 170.071L374.093 169.413C375.191 168.707 376.323 168.017 377.452 167.364L377.845 168.042C376.722 168.691 375.605 169.375 374.517 170.071ZM459.889 167.609C458.76 166.972 457.6 166.354 456.442 165.771L456.794 165.071C457.964 165.661 459.133 166.285 460.272 166.925L459.889 167.609ZM381.26 166.176L380.9 165.479C382.057 164.88 383.246 164.303 384.435 163.757L384.761 164.469C383.585 165.009 382.405 165.583 381.26 166.176ZM452.91 164.099C451.725 163.572 450.511 163.067 449.303 162.597L449.589 161.866C450.809 162.343 452.035 162.851 453.23 163.384L452.91 164.099ZM388.333 162.932L388.042 162.205C389.256 161.715 390.498 161.251 391.73 160.821L391.988 161.562C390.768 161.988 389.538 162.449 388.333 162.932ZM445.627 161.264C444.398 160.853 443.146 160.464 441.901 160.112L442.114 159.357C443.372 159.714 444.636 160.103 445.878 160.52L445.627 161.264ZM395.701 160.37L395.479 159.617C396.73 159.247 398.01 158.902 399.28 158.591L399.469 159.353C398.208 159.661 396.94 160.003 395.701 160.37ZM438.121 159.134C436.86 158.839 435.577 158.572 434.301 158.34L434.442 157.569C435.728 157.804 437.027 158.074 438.297 158.372L438.121 159.134ZM403.276 158.513L403.126 157.744C404.409 157.493 405.714 157.271 407.006 157.082L407.119 157.857C405.839 158.045 404.547 158.265 403.276 158.513ZM430.452 157.729C429.169 157.556 427.864 157.409 426.575 157.296L426.644 156.515C427.946 156.628 429.263 156.775 430.559 156.951L430.452 157.729ZM410.993 157.384L410.914 156.603C412.213 156.474 413.533 156.374 414.841 156.308L414.882 157.092C413.587 157.158 412.279 157.255 410.993 157.384ZM422.683 157.045C421.544 156.998 420.387 156.976 419.248 156.976C419.091 156.976 418.938 156.976 418.784 156.976L418.778 156.192C418.934 156.192 419.094 156.192 419.248 156.192C420.399 156.192 421.566 156.217 422.714 156.261L422.683 157.045Z" fill="#9192FF"/>
<path d="M79.8304 231.772C78.513 231.766 77.1894 231.709 75.8877 231.609L75.9473 230.828C77.2302 230.925 78.5381 230.978 79.8335 230.988L79.8304 231.772ZM83.7763 231.656L83.7261 230.875C85.0153 230.79 86.317 230.658 87.5967 230.486L87.7034 231.264C86.4048 231.439 85.0843 231.571 83.7763 231.656ZM71.9669 231.17C70.6683 230.975 69.3635 230.734 68.0869 230.448L68.2594 229.683C69.5172 229.965 70.8032 230.204 72.0829 230.395L71.9669 231.17ZM91.5896 230.583L91.4265 229.815C92.6906 229.548 93.9609 229.231 95.1999 228.874L95.4163 229.626C94.1617 229.993 92.8725 230.313 91.5896 230.583ZM64.2696 229.448C63.0118 229.071 61.754 228.642 60.5276 228.174L60.8068 227.44C62.0144 227.901 63.2565 228.325 64.4954 228.695L64.2696 229.448ZM99.1709 228.403L98.9011 227.666C100.112 227.221 101.319 226.725 102.496 226.195L102.819 226.91C101.627 227.447 100.397 227.952 99.1709 228.403ZM56.8891 226.634C55.7003 226.079 54.5178 225.474 53.3729 224.837L53.7556 224.153C54.8848 224.784 56.0516 225.379 57.2216 225.925L56.8891 226.634ZM106.351 225.157L105.977 224.467C107.11 223.852 108.239 223.187 109.327 222.494L109.751 223.156C108.647 223.858 107.502 224.533 106.351 225.157ZM49.9917 222.789C48.897 222.07 47.8117 221.302 46.7703 220.508L47.2471 219.884C48.2759 220.668 49.3455 221.424 50.4245 222.133L49.9917 222.789ZM112.997 220.913L112.53 220.282C113.565 219.511 114.587 218.692 115.566 217.852L116.077 218.444C115.086 219.301 114.048 220.129 112.997 220.913ZM43.7184 218.002C42.7366 217.136 41.7737 216.221 40.8546 215.286L41.413 214.737C42.3195 215.659 43.2699 216.559 44.2359 217.416L43.7184 218.002ZM118.976 215.766L118.424 215.211C119.339 214.301 120.236 213.344 121.083 212.372L121.673 212.886C120.814 213.871 119.904 214.84 118.976 215.766ZM38.1916 212.375C37.3416 211.378 36.5167 210.336 35.7419 209.279L36.3724 208.815C37.1377 209.853 37.947 210.882 38.7876 211.867L38.1916 212.375ZM124.16 209.819L123.533 209.348C124.311 208.316 125.061 207.243 125.763 206.158L126.422 206.585C125.713 207.683 124.951 208.771 124.16 209.819ZM33.5212 206.02C32.8217 204.913 32.1568 203.765 31.5389 202.611L32.232 202.241C32.8406 203.379 33.4961 204.511 34.1862 205.603L33.5212 206.02ZM128.451 203.191L127.764 202.815C128.389 201.682 128.978 200.512 129.518 199.336L130.23 199.662C129.681 200.854 129.082 202.043 128.451 203.191ZM29.8074 199.066C29.2742 197.868 28.7786 196.639 28.3364 195.409L29.0735 195.142C29.5126 196.356 29.9988 197.567 30.5257 198.746L29.8074 199.066ZM131.745 196.014L131.011 195.738C131.462 194.528 131.88 193.285 132.244 192.05L132.996 192.272C132.626 193.527 132.206 194.788 131.745 196.014ZM27.1288 191.651C26.7743 190.39 26.4606 189.098 26.1972 187.815L26.9657 187.658C27.226 188.922 27.5334 190.196 27.8847 191.438L27.1288 191.651ZM133.972 188.449L133.206 188.283C133.479 187.022 133.711 185.732 133.897 184.453L134.671 184.563C134.486 185.861 134.251 187.169 133.972 188.449ZM25.5448 183.923C25.3754 182.624 25.2499 181.304 25.1715 179.996L25.9557 179.949C26.0309 181.241 26.1564 182.543 26.3226 183.822L25.5448 183.923ZM135.092 180.639L134.311 180.582C134.402 179.296 134.449 177.988 134.449 176.693H135.233C135.23 178.01 135.183 179.337 135.092 180.639ZM25.8616 176.056L25.0774 176.047C25.0931 174.735 25.1558 173.409 25.2625 172.104L26.0435 172.17C25.94 173.456 25.8772 174.764 25.8616 176.056ZM134.383 174.086C134.32 172.794 134.213 171.489 134.06 170.209L134.838 170.115C134.991 171.414 135.101 172.734 135.164 174.049L134.383 174.086ZM26.5046 168.308L25.7298 168.189C25.9306 166.894 26.1815 165.589 26.4732 164.312L27.2385 164.488C26.9468 165.746 26.7022 167.032 26.5046 168.308ZM133.464 166.364C133.219 165.097 132.924 163.82 132.592 162.572L133.348 162.368C133.686 163.635 133.984 164.927 134.232 166.213L133.464 166.364ZM28.2454 160.73L27.4957 160.501C27.8815 159.247 28.3175 157.989 28.7912 156.769L29.522 157.054C29.0546 158.256 28.6249 159.495 28.2454 160.73ZM131.447 158.855C131.023 157.638 130.55 156.418 130.038 155.232L130.76 154.921C131.277 156.123 131.757 157.359 132.187 158.594L131.447 158.855ZM31.0621 153.472L30.3532 153.137C30.9147 151.951 31.5263 150.772 32.1725 149.63L32.8562 150.016C32.2195 151.142 31.6173 152.305 31.0621 153.472ZM128.373 151.722C127.777 150.577 127.134 149.439 126.46 148.338L127.128 147.927C127.811 149.043 128.467 150.198 129.069 151.361L128.373 151.722ZM34.8919 146.697L34.2395 146.264C34.9641 145.173 35.7388 144.094 36.5418 143.055L37.1628 143.535C36.3693 144.558 35.6071 145.621 34.8919 146.697ZM124.308 145.097C123.555 144.047 122.755 143.012 121.93 142.017L122.532 141.515C123.37 142.522 124.182 143.573 124.945 144.639L124.308 145.097ZM39.647 140.54L39.0636 140.016C39.9356 139.037 40.8546 138.081 41.7956 137.168L42.3414 137.729C41.4161 138.633 40.5096 139.577 39.647 140.54ZM119.339 139.116C118.445 138.184 117.504 137.272 116.548 136.406L117.075 135.826C118.047 136.704 119.001 137.629 119.907 138.576L119.339 139.116ZM45.2302 135.123L44.7253 134.524C45.7258 133.68 46.7735 132.865 47.8337 132.093L48.2947 132.727C47.2471 133.489 46.2151 134.295 45.2302 135.123ZM113.568 133.9C112.549 133.103 111.488 132.334 110.419 131.613L110.858 130.964C111.946 131.695 113.019 132.476 114.054 133.282L113.568 133.9ZM51.5192 130.559L51.1052 129.894C52.2187 129.201 53.3698 128.542 54.5272 127.934L54.8942 128.627C53.7525 129.226 52.617 129.875 51.5192 130.559ZM107.113 129.559C105.99 128.916 104.832 128.304 103.666 127.746L104.004 127.04C105.187 127.608 106.363 128.229 107.499 128.881L107.113 129.559ZM58.3947 126.936L58.081 126.218C59.2792 125.694 60.5119 125.205 61.7477 124.769L62.0081 125.509C60.7942 125.939 59.5772 126.422 58.3947 126.936ZM100.096 126.184C98.8949 125.707 97.659 125.271 96.4232 124.885L96.6584 124.135C97.91 124.527 99.1646 124.973 100.385 125.453L100.096 126.184ZM65.7219 124.342L65.5148 123.586C66.7758 123.238 68.0681 122.934 69.3572 122.677L69.5109 123.445C68.2374 123.699 66.964 124 65.7219 124.342ZM92.6749 123.853C91.4171 123.555 90.1342 123.301 88.8576 123.097L88.9831 122.322C90.2754 122.529 91.5802 122.79 92.8537 123.091L92.6749 123.853ZM73.347 122.824L73.2498 122.046C74.5483 121.883 75.8689 121.767 77.18 121.698L77.2207 122.482C75.9285 122.548 74.6267 122.664 73.347 122.824ZM84.9964 122.617C83.7136 122.504 82.4056 122.435 81.1102 122.413L81.1227 121.629C82.4338 121.651 83.7606 121.723 85.0623 121.836L84.9964 122.617Z" fill="#9192FF"/>
<path d="M300.693 44.6622C293.397 44.6622 287.459 38.7277 287.459 31.4288C287.459 24.133 293.394 18.1953 300.693 18.1953C307.992 18.1953 313.926 24.1298 313.926 31.4288C313.923 38.7277 307.988 44.6622 300.693 44.6622ZM300.693 18.7881C293.72 18.7881 288.049 24.4592 288.049 31.4319C288.049 38.4046 293.72 44.0757 300.693 44.0757C307.665 44.0757 313.336 38.4046 313.336 31.4319C313.336 24.4592 307.665 18.7881 300.693 18.7881Z" fill="#9192FF"/>
<path d="M438.363 92.1637V330.604C438.363 335.566 434.339 339.591 429.383 339.591H82.879C77.9169 339.591 73.8926 335.569 73.8926 330.604V92.1637C73.8926 87.1984 77.9169 83.1772 82.879 83.1772H429.383C434.339 83.1741 438.363 87.1984 438.363 92.1637Z" fill="white"/>
<path d="M429.383 339.979H82.879C77.7067 339.979 73.5005 335.773 73.5005 330.601V92.1634C73.5005 86.9911 77.7067 82.7849 82.879 82.7849H429.383C434.549 82.7849 438.755 86.9911 438.755 92.1634V330.601C438.752 335.773 434.549 339.979 429.383 339.979ZM82.879 83.5691C78.1396 83.5691 74.2846 87.424 74.2846 92.1634V330.601C74.2846 335.34 78.1396 339.195 82.879 339.195H429.383C434.116 339.195 437.971 335.34 437.971 330.601V92.1634C437.971 87.424 434.119 83.5691 429.383 83.5691H82.879Z" fill="#C0C0C0"/>
<path d="M438.363 92.1637V106.31H73.8926V92.1637C73.8926 87.1984 77.9169 83.1772 82.879 83.1772H429.383C434.339 83.1741 438.363 87.1984 438.363 92.1637Z" fill="white"/>
<path d="M438.752 106.702H73.5005V92.1634C73.5005 86.9911 77.7067 82.7849 82.879 82.7849H429.383C434.549 82.7849 438.755 86.9911 438.755 92.1634V106.702H438.752ZM74.2846 105.918H437.971V92.1634C437.971 87.424 434.119 83.5691 429.383 83.5691H82.879C78.1396 83.5691 74.2846 87.424 74.2846 92.1634V105.918Z" fill="#50505F"/>
<path d="M94.1301 98.923C96.4393 98.923 98.3112 97.0511 98.3112 94.7419C98.3112 92.4327 96.4393 90.5608 94.1301 90.5608C91.8209 90.5608 89.949 92.4327 89.949 94.7419C89.949 97.0511 91.8209 98.923 94.1301 98.923Z" fill="#50505F"/>
<path d="M110.074 90.5608C107.768 90.5608 105.893 92.4365 105.893 94.7419C105.893 97.0473 107.768 98.923 110.074 98.923C112.379 98.923 114.255 97.0473 114.255 94.7419C114.255 92.4365 112.379 90.5608 110.074 90.5608Z" fill="#C0C0C0"/>
<path d="M126.017 98.923C123.712 98.923 121.836 97.0473 121.836 94.7419C121.836 92.4365 123.712 90.5608 126.017 90.5608C128.323 90.5608 130.198 92.4365 130.198 94.7419C130.202 97.0473 128.326 98.923 126.017 98.923ZM126.017 91.3449C124.145 91.3449 122.62 92.8693 122.62 94.7419C122.62 96.6145 124.145 98.1389 126.017 98.1389C127.89 98.1389 129.414 96.6145 129.414 94.7419C129.417 92.8693 127.893 91.3449 126.017 91.3449Z" fill="#9192FF"/>
<path d="M228.924 99.3964H151.192C148.623 99.3964 146.537 97.3074 146.537 94.7417C146.537 92.1759 148.626 90.0869 151.192 90.0869H228.921C231.487 90.0869 233.575 92.1759 233.575 94.7417C233.575 97.3074 231.49 99.3964 228.924 99.3964ZM151.192 90.8711C149.056 90.8711 147.321 92.6088 147.321 94.7417C147.321 96.8777 149.059 98.6123 151.192 98.6123H228.921C231.057 98.6123 232.791 96.8746 232.791 94.7417C232.791 92.6056 231.054 90.8711 228.921 90.8711H151.192Z" fill="#50505F"/>
<path d="M327.768 217.264C327.768 254.81 297.337 285.251 259.791 285.251C222.246 285.251 191.805 254.81 191.805 217.264C191.805 182.04 218.598 153.073 252.913 149.623L255.181 171.931C232.189 174.246 214.238 193.661 214.238 217.264C214.238 242.43 234.632 262.824 259.791 262.824C284.947 262.824 305.335 242.427 305.335 217.264C305.335 212.873 304.714 208.629 303.554 204.614L325.109 198.388C326.843 204.382 327.768 210.718 327.768 217.264Z" fill="#50505F"/>
<path d="M259.788 272.156C290.104 272.156 314.679 247.58 314.679 217.265C314.679 186.949 290.104 162.374 259.788 162.374C229.473 162.374 204.897 186.949 204.897 217.265C204.897 247.58 229.473 272.156 259.788 272.156Z" fill="white"/>
<path d="M259.788 272.156C290.104 272.156 314.679 247.58 314.679 217.265C314.679 186.949 290.104 162.374 259.788 162.374C229.473 162.374 204.897 186.949 204.897 217.265C204.897 247.58 229.473 272.156 259.788 272.156Z" fill="#C0C0C0"/>
<path d="M259.788 256.156C281.26 256.156 298.667 238.744 298.667 217.265C298.667 195.786 281.26 178.374 259.788 178.374C238.316 178.374 220.91 195.786 220.91 217.265C220.91 238.744 238.316 256.156 259.788 256.156Z" fill="white"/>
<path d="M264.227 236.388V242.301H256.718V236.655C251.392 236.335 246.229 234.895 243.033 232.926L247.079 223.763C250.595 225.84 255.278 227.173 259.381 227.173C262.95 227.173 264.23 226.426 264.23 225.147C264.23 220.461 243.619 224.243 243.619 210.339C243.619 204.319 247.985 199.257 256.721 198.034V192.228H264.23V197.927C268.167 198.3 272.006 199.313 275.042 201.017L271.259 210.125C267.583 208.259 264.12 207.356 260.874 207.356C257.198 207.356 256.025 208.419 256.025 209.699C256.025 214.175 276.635 210.445 276.635 224.187C276.632 229.943 272.479 234.952 264.227 236.388Z" fill="#50505F"/>
<path d="M501.795 36.6606H353.899V127.093H501.795V36.6606Z" fill="white"/>
<path d="M502.187 127.485H353.508V36.2686H502.187V127.485ZM354.292 126.701H501.403V37.0527H354.292V126.701Z" fill="#9192FF"/>
<path d="M381.032 98.3081H372.519V113.941H381.032V98.3081Z" fill="#C0C0C0"/>
<path d="M398.058 91.1658H389.545V113.941H398.058V91.1658Z" fill="#C0C0C0"/>
<path d="M415.08 97.0034H406.567V113.938H415.08V97.0034Z" fill="#C0C0C0"/>
<path d="M432.106 85.0872H423.593V113.938H432.106V85.0872Z" fill="#C0C0C0"/>
<path d="M449.131 77.4651H440.619V113.941H449.131V77.4651Z" fill="#C0C0C0"/>
<path d="M466.154 66.5811H457.641V113.941H466.154V66.5811Z" fill="#C0C0C0"/>
<path d="M483.18 49.8157H474.667V113.941H483.18V49.8157Z" fill="#C0C0C0"/>
<path d="M379.285 57.4253H372.519V65.0849H379.285V57.4253Z" fill="#50505F"/>
<path d="M435.553 60.9695H389.74V62.933H435.553V60.9695Z" fill="#50505F"/>
<path d="M368.717 172.944L359.351 147.07C348.768 150.903 341.206 161.037 341.206 172.944C341.206 188.138 353.523 200.455 368.717 200.455C383.911 200.455 396.229 188.138 396.229 172.944C396.229 168.371 395.106 164.064 393.133 160.269L368.717 172.944Z" fill="#C0C0C0"/>
<path d="M396.793 150.467C392.207 141.653 382.998 135.627 372.377 135.627C369.087 135.627 365.935 136.208 363.011 137.265L372.377 163.139L396.793 150.467Z" fill="#50505F"/>
<path d="M407.661 261.108H342.576V323.057H407.661V261.108Z" fill="#C0C0C0"/>
<path d="M389.234 277.576H352.771V280.192H389.234V277.576Z" fill="white"/>
<path d="M389.234 285.417H352.771V288.033H389.234V285.417Z" fill="white"/>
<path d="M159.222 142.7H102.624V238.368H159.222V142.7Z" fill="#C0C0C0"/>
<path d="M148.366 156.555H111.25V190.535H148.366V156.555Z" fill="white"/>
<path d="M111.529 156.272L110.999 156.851L148.116 190.833L148.646 190.254L111.529 156.272Z" fill="#EBEBFF"/>
<path d="M148.087 156.271L110.975 190.253L111.504 190.831L148.616 156.85L148.087 156.271Z" fill="#EBEBFF"/>
<path d="M129.828 181.774H0.376221V267.068H129.828V181.774Z" fill="white"/>
<path d="M130.202 267.442H0V181.401H130.202V267.442ZM0.749655 266.695H129.452V182.147H0.749655V266.695Z" fill="#9192FF"/>
<path d="M14.0146 246.47L22.38 230.786L39.6315 246.993L51.1304 213.535L72.5661 237.06L86.681 231.31L112.295 197.852" fill="white"/>
<path d="M39.8038 247.696L22.4834 231.423L14.3595 246.655L13.6694 246.288L22.2732 230.15L39.4557 246.291L50.9765 212.783L72.6695 236.596L86.433 230.987L111.984 197.614L112.608 198.091L86.9254 231.634L72.4593 237.527L72.2742 237.324L51.287 214.288L39.8038 247.696Z" fill="#9192FF"/>
<path d="M22.4461 232.878C23.6379 232.878 24.6041 231.912 24.6041 230.72C24.6041 229.529 23.6379 228.562 22.4461 228.562C21.2543 228.562 20.2881 229.529 20.2881 230.72C20.2881 231.912 21.2543 232.878 22.4461 232.878Z" fill="#9192FF"/>
<path d="M39.4998 248.759C40.6916 248.759 41.6578 247.793 41.6578 246.601C41.6578 245.41 40.6916 244.443 39.4998 244.443C38.308 244.443 37.3418 245.41 37.3418 246.601C37.3418 247.793 38.308 248.759 39.4998 248.759Z" fill="#9192FF"/>
<path d="M51.262 215.825C52.4538 215.825 53.42 214.859 53.42 213.667C53.42 212.475 52.4538 211.509 51.262 211.509C50.0702 211.509 49.104 212.475 49.104 213.667C49.104 214.859 50.0702 215.825 51.262 215.825Z" fill="#9192FF"/>
<path d="M92.5471 195.371H37.656V196.155H92.5471V195.371Z" fill="#9192FF"/>
<path d="M308.161 387.945C305.84 372.738 309.029 356.751 317.006 343.596C324.982 330.444 337.689 320.228 352.246 315.256C344.003 321.028 338.969 330.353 335.459 339.785C331.949 349.214 329.643 359.113 325.312 368.196C320.98 377.277 314.148 385.765 304.679 389.162L308.161 387.945Z" fill="#50505F"/>
<path d="M305.883 388.07C305.554 370.496 302.141 352.981 295.846 336.57C293.61 330.742 290.931 324.924 286.571 320.457C282.211 315.99 275.872 313.045 269.728 314.137C277.381 319.864 281.346 329.287 283.579 338.584C285.812 347.877 286.672 357.523 289.815 366.55C292.957 375.577 298.97 384.278 307.969 387.506L305.883 388.07Z" fill="#50505F"/>
<path d="M304.682 389.224C300.307 377.44 295.552 365.361 286.753 356.387C277.955 347.41 264.016 342.275 252.492 347.294C261.823 349.411 270.374 354.812 276.293 362.331C280.634 367.845 283.551 374.382 288.014 379.796C292.478 385.21 299.287 389.573 306.185 388.28L304.682 389.224Z" fill="#C0C0C0"/>
<path d="M303.283 388.418C301.489 375.486 299.698 362.347 301.587 349.43C303.475 336.513 309.585 323.616 320.529 316.499C314.472 322.439 312.449 331.435 312.446 339.92C312.442 348.404 314.161 356.811 314.306 365.295C314.45 373.78 312.766 382.791 307.029 389.039L303.283 388.418Z" fill="#C0C0C0"/>
<path d="M309.34 386.533C313.534 375.847 318.007 364.753 326.548 357.08C332.034 352.156 339.019 348.925 346.324 347.937C341.202 352.024 337.997 358.012 335.337 364C332.677 369.988 330.381 376.223 326.529 381.524C322.677 386.825 316.89 391.185 310.344 391.464L309.34 386.533Z" fill="#C0C0C0"/>
<path d="M330.638 419.05H283.532L276.268 382.813H337.899L330.638 419.05Z" fill="#D1D1FF"/>
<path d="M330.958 419.443H283.209L275.788 382.421H338.376L330.958 419.443ZM283.852 418.658H330.315L337.419 383.205H276.744L283.852 418.658Z" fill="#D1D1FF"/>
<path d="M414.972 397.261V419.051H386.714L399.65 408.496L400.33 395.219L414.972 397.261Z" fill="#D1D1FF"/>
<path d="M399.934 408.202L399.394 408.77L404.789 413.902L405.33 413.334L399.934 408.202Z" fill="#1B1B43"/>
<path d="M412.234 403.041H402.563V403.825H412.234V403.041Z" fill="#1B1B43"/>
<path d="M447.998 398.28L449.021 419.051H420.76L432.679 408.835V396.238L447.998 398.28Z" fill="#D1D1FF"/>
<path d="M432.932 408.502L432.413 409.089L436.802 412.966L437.321 412.378L432.932 408.502Z" fill="#1B1B43"/>
<path d="M445.433 403.434H435.891V404.218H445.433V403.434Z" fill="#1B1B43"/>
<path d="M417.817 272.006C418.303 315.426 421.901 358.156 428.783 400.156H452.596C447.643 368.037 445.404 329.03 448.173 277.316L430.978 263.232L417.817 272.006Z" fill="#FE5B52"/>
<path d="M398.994 277.749L388.22 325.67C385.632 337.185 385.45 349.11 387.693 360.7L395.262 399.842H419.075L411.867 348.458L429.1 270.127L398.994 277.749Z" fill="#FE5B52"/>
<path d="M419.423 323.669C419.363 322.681 418.005 300.643 417.867 297.851L411.644 295.59L411.911 294.853L418.639 297.299V297.575C418.639 298.058 419.664 314.827 420.207 323.625L419.423 323.669Z" fill="#BE443D"/>
<path d="M470.981 169.557L472.254 166.518C472.254 166.518 467.646 156.813 469.117 155.54C470.589 154.266 472.941 157.892 472.941 157.892C472.941 157.892 472.254 146.13 474.509 146.032C476.41 145.951 476.272 149.364 476.47 154.464C476.47 154.464 477.646 152.895 479.81 154.517C480.783 152.895 482.84 153.974 483.43 154.956C484.117 154.172 486.959 154.366 486.567 157.701C486.068 161.926 484.117 169.758 484.117 169.758L477.844 174.952L470.981 169.557Z" fill="#FFBC96"/>
<path d="M420.6 210.139L430.138 210.064C446.869 208.571 459.94 194.98 459.94 194.98L470.984 169.561L484.12 169.755L476.41 199.631C475.303 203.922 472.916 207.774 469.569 210.679L442.167 234.448L420.6 210.139Z" fill="#3335CF"/>
<path d="M394.453 231.769L398.995 277.749L448.174 277.316L446.477 221.901L420.6 210.139L402.693 217.72L394.453 231.769Z" fill="#3335CF"/>
<path d="M363.996 236.236C363.193 235.524 362.183 235.088 361.113 235C355.678 234.548 338.68 233.234 338.846 234.555C339.041 236.123 351.983 242.004 351.983 242.004C354.749 245.119 357.516 248.233 360.282 251.345L367.885 239.686L363.996 236.236Z" fill="#FFBC96"/>
<path d="M401.068 214.565C397.564 215.177 394.553 217.404 392.941 220.572L378.446 249.058L367.885 239.686L360.282 251.345C361.207 252.386 362.133 253.428 363.058 254.469C367.164 259.089 371.95 265.3 378.362 266.646C381.63 267.332 384.669 265.974 387.012 263.728C388.728 262.082 390.262 260.046 391.488 258.004L397.269 248.475L415.697 212.012L401.068 214.565Z" fill="#3335CF"/>
<path d="M394.829 231.755L394.048 231.831L396.8 260.124L397.58 260.048L394.829 231.755Z" fill="#D1D1FF"/>
<path d="M446.772 230.333L442.164 234.448L447.063 242.584L446.772 230.333Z" fill="#1B1B43"/>
<path d="M478.169 160.313C476.319 160.313 476.178 157.889 476.175 154.464H476.764C476.764 158.494 477.094 159.724 478.169 159.724C478.383 159.724 478.568 159.639 478.734 159.46C479.258 158.899 479.462 157.585 479.524 156.405C479.484 155.552 479.506 154.812 479.518 154.501L480.105 154.492C480.111 154.564 480.161 155.358 480.117 156.333C480.199 157.93 480.469 159.507 480.999 159.667C481.297 159.755 481.554 159.717 481.786 159.551C482.42 159.093 482.777 157.801 482.962 156.644C482.978 156.148 483.031 155.571 483.138 154.903L483.721 154.956C483.718 155.022 483.696 155.693 483.574 156.537C483.53 157.76 483.671 158.946 484.164 159.153C484.531 159.307 484.832 159.307 485.089 159.15C485.763 158.739 486.005 157.352 486.042 156.854L486.629 156.898C486.623 156.982 486.46 158.999 485.393 159.652C484.97 159.909 484.48 159.925 483.935 159.696C483.797 159.639 483.364 159.388 483.122 158.469C482.89 159.128 482.57 159.708 482.128 160.025C481.742 160.304 481.306 160.37 480.826 160.229C480.309 160.075 479.989 159.413 479.794 158.588C479.65 159.1 479.446 159.551 479.161 159.856C478.885 160.16 478.552 160.313 478.169 160.313Z" fill="#D28572"/>
<path d="M416.45 221.299C412.269 221.635 408.615 218.523 408.28 214.352L408.195 213.291L407.003 198.502L416.218 197.765L422.131 197.288L423.401 213.128C423.737 217.306 420.622 220.96 416.45 221.299Z" fill="#FFBC96"/>
<path d="M419.164 202.752C416.294 207.808 412.185 211.45 408.195 213.291L407.003 198.502L416.218 197.765L419.164 202.752Z" fill="#1B1B43"/>
<path d="M422.168 187.263L420.343 202.689C420.343 202.689 414.462 208.31 405.836 208.044C402.69 207.95 400.839 204.97 399.757 201.181C399.308 199.597 398.995 197.881 398.778 196.162C398.057 190.485 398.386 184.908 398.386 184.908L411.717 180.469L422.168 187.263Z" fill="#FFBC96"/>
<path d="M420.142 193.606C418.753 188.656 416.262 186.169 412.89 185.632C402.172 191.448 395.215 187.985 390.15 181.517C402.564 183.935 407.991 166.292 419.882 178.054C428.702 180.733 428.542 189.164 423.542 196.024L420.142 193.606Z" fill="#1B1B43"/>
<path d="M425.643 195.509C426.098 193.182 424.831 190.976 422.813 190.581C420.795 190.187 418.79 191.754 418.336 194.082C417.881 196.409 419.148 198.616 421.166 199.01C423.184 199.404 425.189 197.837 425.643 195.509Z" fill="#FFBC96"/>
<path d="M423.395 193.185C422.78 193.289 422.382 193.753 422.084 194.283C421.792 194.819 421.601 195.419 421.485 196.062L421.256 196.074C421.159 195.729 421.159 195.362 421.215 195.011C421.275 194.656 421.394 194.311 421.576 193.995C421.758 193.681 421.999 193.383 422.319 193.173C422.633 192.963 423.05 192.853 423.414 192.953L423.395 193.185Z" fill="#1B1B43"/>
<path d="M401.583 194.227C401.583 194.895 401.26 195.434 400.865 195.434C400.47 195.434 400.146 194.892 400.146 194.227C400.146 193.562 400.47 193.019 400.865 193.019C401.26 193.019 401.583 193.559 401.583 194.227Z" fill="#1B1B43"/>
<path d="M407.523 193.734C407.523 194.459 407.175 195.045 406.745 195.045C406.316 195.045 405.968 194.459 405.968 193.734C405.968 193.01 406.316 192.423 406.745 192.423C407.175 192.423 407.523 193.01 407.523 193.734Z" fill="#1B1B43"/>
<path d="M403.217 195.209C403.22 195.441 403.126 195.67 403.016 195.864C402.897 196.059 402.756 196.225 402.618 196.378C402.339 196.683 402.082 196.959 402.022 197.25C401.944 197.545 402.06 197.837 402.289 198.129C402.518 198.417 402.825 198.678 403.123 198.966L402.998 199.158C402.615 198.994 402.235 198.794 401.909 198.477C401.746 198.317 401.602 198.122 401.505 197.884C401.41 197.643 401.392 197.367 401.457 197.116C401.523 196.862 401.655 196.639 401.806 196.466C401.956 196.294 402.116 196.15 402.273 196.018C402.577 195.751 402.872 195.522 402.998 195.171L403.217 195.209Z" fill="#1B1B43"/>
<path d="M403.782 201.742C404.61 201.557 405.378 201.297 406.062 200.867C406.404 200.657 406.73 200.412 407.041 200.145C407.351 199.876 407.649 199.587 407.96 199.289L408.145 199.424C407.759 200.211 407.141 200.901 406.366 201.369C405.595 201.836 404.669 202.059 403.794 201.971L403.782 201.742Z" fill="#1B1B43"/>
<path d="M405.802 190.488C405.632 191.372 408.414 191.658 408.913 191.746C409.324 191.818 409.914 191.865 409.998 191.241C410.105 190.466 409.264 190.384 408.788 190.281C408.333 190.18 405.962 189.653 405.802 190.488Z" fill="#1B1B43"/>
<path d="M401.934 191.034C401.919 191.89 399.71 191.975 399.306 192.025C398.973 192.065 398.509 192.072 398.544 191.47C398.587 190.723 399.256 190.701 399.644 190.635C400.011 190.569 401.947 190.224 401.934 191.034Z" fill="#1B1B43"/>
<path opacity="0.2" d="M412.316 199.208C413.886 199.208 415.158 197.935 415.158 196.366C415.158 194.796 413.886 193.524 412.316 193.524C410.747 193.524 409.475 194.796 409.475 196.366C409.475 197.935 410.747 199.208 412.316 199.208Z" fill="#FE5B52"/>
<path opacity="0.2" d="M400.902 198.916C400.902 199.851 400.457 200.673 399.757 201.181C399.309 199.597 398.995 197.881 398.779 196.162C399.999 196.485 400.902 197.602 400.902 198.916Z" fill="#FE5B52"/>
<path d="M198.294 290.512H143.742V294.185H198.294V290.512Z" fill="#50505F"/>
<path d="M198.292 290.515H152.221L169.67 247.973H215.737L198.292 290.515Z" fill="white"/>
<path d="M198.555 290.907H151.637L169.406 247.584H216.324L198.555 290.907ZM152.807 290.123H198.028L215.154 248.368H169.933L152.807 290.123Z" fill="#50505F"/>
<path d="M194.314 286.939H158.108L171.822 253.506H208.028L194.314 286.939Z" fill="#C0C0C0"/>
<path d="M179.951 295.361H179.167V419.252H179.951V295.361Z" fill="#1B1B43"/>
<path d="M223.557 294.188H135.559V301.186H223.557V294.188Z" fill="#C0C0C0"/>
<path d="M64.5456 347.401H63.7615V419.252H64.5456V347.401Z" fill="#1B1B43"/>
<path d="M85.6739 350.732H42.6331C43.5458 346.363 47.4007 343.232 51.8642 343.232H76.4459C80.9062 343.232 84.7612 346.363 85.6739 350.732Z" fill="#C0C0C0"/>
<path d="M75.3263 419.042H52.981C52.981 416.325 55.1829 414.123 57.8992 414.123H70.4049C73.1244 414.12 75.3263 416.325 75.3263 419.042Z" fill="#C0C0C0"/>
<path d="M97.3579 240.796C98.4589 242.38 100.037 244.62 100.212 246.577C100.466 249.425 95.9088 247.427 95.8555 247.675L97.3579 240.796Z" fill="#D28572"/>
<path d="M90.401 244.146H75.9976V265.256H90.401V244.146Z" fill="#FFBC96"/>
<path d="M90.4012 247.766V262.838C85.8625 259.987 81.9385 255.752 78.5479 250.862L90.4012 247.766Z" fill="#1B1B43"/>
<path d="M98.4964 242.076C98.0479 249.369 95.2406 257.618 87.5841 255.582C81.5711 253.983 74.9497 248.92 74.9497 241.615C74.9497 234.31 80.006 228.385 86.2447 228.385C90.1435 228.385 95.0524 230.276 97.3609 233.93C98.7505 236.126 98.694 238.895 98.4964 242.076Z" fill="#FFBC96"/>
<path d="M85.7493 239.962C87.7881 234.554 92.4554 234.021 92.4554 234.021C92.4554 234.021 103.264 244.711 102.593 233.666C102.06 224.89 93.4842 225.718 93.4842 225.718C89.2936 220.264 82.5719 222.397 80.1221 225.561C77.6724 228.726 78.5413 226.907 72.7699 228.962C66.9985 231.016 70.0818 239.795 69.053 240.426C61.3839 240.426 62.8048 248.017 62.8048 248.017L80.9628 253.939L85.3352 242L85.7493 239.962Z" fill="#1B1B43"/>
<path d="M86.9583 245.66C88.4555 244.795 88.7592 242.518 87.6367 240.574C86.5142 238.63 84.3904 237.754 82.8933 238.619C81.3961 239.483 81.0924 241.76 82.2149 243.704C83.3375 245.649 85.4612 246.524 86.9583 245.66Z" fill="#FFBC96"/>
<path d="M85.3229 242.923C85.0689 242.43 84.8525 241.95 84.5106 241.615C84.3412 241.445 84.1467 241.307 83.924 241.188C83.7013 241.069 83.4535 240.969 83.1995 240.849L83.2371 240.645C83.5257 240.63 83.8174 240.664 84.1028 240.758C84.3882 240.853 84.6674 241.019 84.8838 241.245C85.1034 241.47 85.2602 241.74 85.3606 242.019C85.461 242.299 85.5143 242.584 85.5237 242.873L85.3229 242.923Z" fill="#1B1B43"/>
<path d="M78.5372 229.859C81.9028 229.699 84.4912 226.613 84.3184 222.966C84.1457 219.318 81.2773 216.49 77.9117 216.649C74.546 216.809 71.9576 219.895 72.1304 223.543C72.3031 227.19 75.1715 230.018 78.5372 229.859Z" fill="#1B1B43"/>
<path opacity="0.2" d="M92.236 248.955C93.7518 248.955 94.9806 247.726 94.9806 246.21C94.9806 244.694 93.7518 243.466 92.236 243.466C90.7202 243.466 89.4915 244.694 89.4915 246.21C89.4915 247.726 90.7202 248.955 92.236 248.955Z" fill="#FE5B52"/>
<path d="M103.016 317.176L56.8828 311.295L65.5807 265.444C66.1923 262.238 68.3252 259.515 71.2988 258.167C73.7767 257.038 76.606 256.965 79.1466 257.963L94.8674 264.948C97.8943 266.291 99.9801 269.135 100.357 272.423L101.244 287.4L102.257 304.376L103.016 317.176Z" fill="#FFA121"/>
<path d="M145.229 284.242L157.44 280.653C158.321 280.396 159.265 280.537 160.031 281.042C163.374 283.26 172.27 289.539 170.024 292.105C168.901 293.388 158.691 290.383 158.691 290.383L143.908 294.508L145.229 284.242Z" fill="#FFBC96"/>
<path d="M102.257 304.378C98.4151 299.485 96.1316 293.024 95.3726 285.025L101.247 287.4L102.257 304.378Z" fill="#1B1B43"/>
<path d="M93.4746 264.377L95.3127 265.171C99.0954 266.802 102.489 269.223 105.259 272.275L120.399 288.95L145.232 284.245L148.501 297.575L117.3 307.327C114.838 307.766 112.319 306.916 110.626 305.072L88.1204 280.584L93.4746 264.377Z" fill="#FFA121"/>
<path d="M120.111 289.213C120.036 289.131 112.652 281.089 106.253 273.919C99.9299 266.827 90.2879 263.379 90.1907 263.345L90.451 262.605C90.5483 262.639 100.375 266.149 106.84 273.395C113.232 280.562 120.616 288.601 120.688 288.683L120.111 289.213Z" fill="#1B1B43"/>
<path d="M89.9628 283.17L89.3997 283.716L110.336 305.327L110.899 304.781L89.9628 283.17Z" fill="#1B1B43"/>
<path d="M101.345 386.524L91.3923 405.911L116.532 418.816L109.842 403.518L115.303 391.395L101.345 386.524Z" fill="#D1D1FF"/>
<path d="M109.742 403.138L102.598 405.24L102.82 405.993L109.963 403.89L109.742 403.138Z" fill="#1B1B43"/>
<path d="M117 399.265L94.2249 390.768L109.82 342.238C112.502 335.052 120.761 331.498 128.267 334.299C135.773 337.1 139.684 345.196 137.002 352.382L117 399.265Z" fill="#26289C"/>
<path d="M139.088 395.984L141.312 419.051H169.569L156.634 408.496L153.595 395.2L139.088 395.984Z" fill="#D1D1FF"/>
<path d="M156.441 408.133L149.745 411.825L150.123 412.512L156.82 408.82L156.441 408.133Z" fill="#1B1B43"/>
<path d="M159.476 398.728L134.775 402.649L117.862 352.912L114.779 343.837L72.7729 344.173C62.3844 344.408 54.1163 335.51 55.1357 325.159L56.8828 311.295L98.4431 316.527L125.757 319.529C137.127 321.489 140.618 328.374 142.983 337.219L159.476 398.728Z" fill="#3335CF"/>
<path d="M117.862 352.912L114.779 343.838L120.462 343.643C120.989 347.062 119.631 350.879 117.862 352.912Z" fill="#1B1B43"/>
<path d="M492.743 418.659H16.7588V419.443H492.743V418.659Z" fill="#1B1B43"/>
</svg>
